<svg xmlns="http://www.w3.org/2000/svg" viewBox="0 0 1565.58 374.91"><defs><style>.cls-1,.cls-2{fill:#fff;}.cls-1{fill-opacity:0.2;}</style></defs><title>curve</title><g id="Layer_44" data-name="Layer 44"><path class="cls-1" d="M1557.31,374.91c1.32-31.86-16.52-69.35-45.93-105.2-44.64-54.44-116-105.11-187.39-126.59-117.46-35.31-175.94,26.15-310.56,63.21A674.94,674.94,0,0,1,908,226.43c-278.92,31.1-360.28-119.79-614.63-62.63C181.3,189,33.56,293,15.44,358.76a44.65,44.65,0,0,0-1.69,16.15H1557.31Z"/><path class="cls-2" d="M1556.8,374.91H44.47c43.26-53.34,164.63-110.07,258.3-135.34,248.65-67.1,335.29,78.41,609.28,36,212.65-32.91,262.94-136.43,407.1-99.7,99.74,25.42,201.68,107.08,231.4,179.62A122.76,122.76,0,0,1,1556.8,374.91Z"/><path class="cls-1" d="M1549.21,374.91H1.84c4.15-5.32,8.7-10.71,13.6-16.15,54.29-60.17,152.12-125.38,233.33-148.1,256.71-71.84,347.79,77.93,631,31.39a686.52,686.52,0,0,0,133.69-35.72c116.57-44,173.33-99.16,286.71-71.39,81.18,19.88,164.09,75.57,211.24,134.77,23.13,29,37.66,58.89,39.17,85.78A73.93,73.93,0,0,1,1549.21,374.91Z"/></g></svg>