<svg xmlns="http://www.w3.org/2000/svg" viewBox="0 0 350 250"><defs><style>.cls-1{fill:url(#MyGradient)}</style> <defs>
    <linearGradient id="MyGradient" gradientTransform="rotate(0)">
        <stop offset="5%"  stop-color="#ffffff" />
        <stop offset="95%" stop-color="#ffffff" />
    </linearGradient></defs>
</defs><title>icons</title><g id="Layer_43" data-name="Layer 43"><path class="cls-1" d="M152.14,243.29A86.42,86.42,0,0,1,125,244.43c-7.69-.84-16.23-2-19.53-3.14a120.84,120.84,0,0,1-52.4-34.8c-20.3-22.75-31-49.52-32.42-79.89a123.1,123.1,0,0,1,9.66-53.55c11.51-27.7,33.87-49.51,62.25-59.21C111.26,7.46,130.54,5.29,150,5c23-.31,45.9,1.7,68.66,4.92,20.49,2.9,40.67,7.23,59.89,15.17,14.09,5.82,27.25,13.09,37.52,24.64a51.4,51.4,0,0,1,13.37,34.71c-.13,9.54-2.75,18.56-6.84,27.16-8.72,18.33-22,33-36.78,46.64-11.25,10.38-23.66,19.28-35.92,28.37C233.09,199.11,216.51,212,198.62,223c-13.88,8.54-28.32,15.84-44.26,19.8Q153.25,243.06,152.14,243.29Z"/></g></svg>